<?xml version="1.0" encoding="UTF-8"?>
<svg width="56px" height="55px" viewBox="0 0 56 55" version="1.1" xmlns="http://www.w3.org/2000/svg" xmlns:xlink="http://www.w3.org/1999/xlink">
    <!-- Generator: Sketch 49.3 (51167) - http://www.bohemiancoding.com/sketch -->
    <title>puntas-de-flecha-delgadas-apuntando-hacia-abajo</title>
    <desc>Created with Sketch.</desc>
    <defs></defs>
    <g id="Page-1" stroke="none" stroke-width="1" fill="none" fill-rule="evenodd">
        <g id="Desktop-HD-Copy-6" transform="translate(-291.000000, -390.000000)" fill="#F23B90" fill-rule="nonzero">
            <g id="puntas-de-flecha-delgadas-apuntando-hacia-abajo" transform="translate(291.000000, 390.000000)">
                <path d="M26.7029614,32.0895719 C27.0766877,32.4632982 27.5072,32.6497684 27.9933193,32.6497684 C28.4794386,32.6497684 28.9091649,32.4634947 29.2826947,32.0895719 L55.4266386,5.94680702 C55.8003649,5.57288421 55.9860491,5.14256842 55.9860491,4.65644912 C55.9860491,4.17032982 55.799186,3.73981754 55.4266386,3.36609123 L52.6219228,0.560589474 C52.2481965,0.186666667 51.8176842,0 51.3309754,0 C50.8454456,0 50.4151298,0.186666667 50.0414035,0.560589474 L27.9933193,22.6078877 L5.94621754,0.560589474 C5.57229474,0.186666667 5.14197895,0 4.65585965,0 C4.16954386,0 3.73922807,0.186666667 3.36550175,0.560589474 L0.561178947,3.36609123 C0.186666667,3.73981754 0,4.16954386 0,4.65644912 C0,5.14335439 0.18725614,5.5730807 0.561178947,5.94680702 L26.7029614,32.0895719 Z" id="Shape"></path>
                <path d="M52.6219228,22.5611789 C52.2481965,22.1872561 51.8176842,22.0005895 51.3309754,22.0005895 C50.8454456,22.0005895 50.4151298,22.1872561 50.0414035,22.5611789 L27.9933193,44.6082807 L5.94621754,22.5605895 C5.57229474,22.1866667 5.14197895,22 4.65585965,22 C4.16954386,22 3.73922807,22.1866667 3.36550175,22.5605895 L0.561178947,25.3658947 C0.186666667,25.7398175 0,26.1701333 0,26.6560561 C0,27.1421754 0.18725614,27.5726877 0.561178947,27.9470035 L26.7029614,54.0893754 C27.0766877,54.4632982 27.5072,54.6501614 27.9933193,54.6501614 C28.4794386,54.6501614 28.9091649,54.4632982 29.2826947,54.0893754 L55.4266386,27.9470035 C55.8003649,27.5730807 55.9860491,27.1427649 55.9860491,26.6570386 C55.9860491,26.1709193 55.799186,25.741193 55.4266386,25.3666807 L52.6219228,22.5611789 Z" id="Shape"></path>
            </g>
        </g>
    </g>
</svg>