<?xml version="1.0" encoding="UTF-8"?>
<svg width="47px" height="47px" viewBox="0 0 47 47" version="1.1" xmlns="http://www.w3.org/2000/svg" xmlns:xlink="http://www.w3.org/1999/xlink">
    <!-- Generator: Sketch 49.3 (51167) - http://www.bohemiancoding.com/sketch -->
    <title>Shape</title>
    <desc>Created with Sketch.</desc>
    <defs></defs>
    <g id="Page-1" stroke="none" stroke-width="1" fill="none" fill-rule="evenodd">
        <g id="Desktop-HD" transform="translate(-1056.000000, -3993.000000)" fill="#FEFAFC" fill-rule="nonzero">
            <g id="logo-linkedin" transform="translate(1056.000000, 3992.000000)">
                <path d="M11.1986087,6.48654545 C11.1986087,9.48872727 9.0386087,11.8952727 5.56591304,11.8952727 L5.50121739,11.8952727 C2.15791304,11.8974545 0,9.48654545 0,6.48654545 C0,3.41236364 2.22678261,1.07127273 5.6306087,1.07127273 C9.0386087,1.06909091 11.136,3.41236364 11.1986087,6.48654545 Z M0.584347826,47.4894545 L10.5433043,47.4894545 L10.5433043,16.1738182 L0.584347826,16.1738182 L0.584347826,47.4894545 Z M34.9857391,15.4407273 C29.7036522,15.4407273 27.3391304,18.4734545 26.0097391,20.6116364 L26.0097391,20.712 L25.9450435,20.712 C25.970087,20.6814545 25.9930435,20.6465455 26.0097391,20.6116364 L26.0097391,16.176 L16.0528696,16.176 C16.1822609,19.1105455 16.0528696,47.4916364 16.0528696,47.4916364 L26.0097391,47.4916364 L26.0097391,30.0021818 C26.0097391,29.0596364 26.0702609,28.1367273 26.3373913,27.4625455 C27.0594783,25.5992727 28.6998261,23.6509091 31.442087,23.6509091 C35.0504348,23.6509091 36.4925217,26.5287273 36.4925217,30.7352727 L36.4925217,47.4916364 L46.449392,47.4916364 L46.4493913,29.5374545 C46.4514783,19.9112727 41.5346087,15.4407273 34.9857391,15.4407273 Z" id="Shape"></path>
            </g>
        </g>
    </g>
</svg>