<?xml version="1.0" encoding="UTF-8"?>
<svg width="48px" height="40px" viewBox="0 0 48 40" version="1.1" xmlns="http://www.w3.org/2000/svg" xmlns:xlink="http://www.w3.org/1999/xlink">
    <!-- Generator: Sketch 49.3 (51167) - http://www.bohemiancoding.com/sketch -->
    <title>Shape</title>
    <desc>Created with Sketch.</desc>
    <defs></defs>
    <g id="Page-1" stroke="none" stroke-width="1" fill="none" fill-rule="evenodd">
        <g id="Desktop-HD" transform="translate(-1056.000000, -4064.000000)" fill="#FEFAFC" fill-rule="nonzero">
            <g id="talla-mediana" transform="translate(1056.000000, 4064.000000)">
                <path d="M47.9861157,5.7521978 L45.338281,5.7521978 C44.6488264,5.7521978 42.8447603,6.58208791 42.8447603,7.28857143 L42.8447603,32.9442857 C42.8447603,33.6525275 44.6488264,34.2331868 45.338281,34.2331868 L47.9861157,34.2331868 L47.9861157,39.9293407 L30.8481322,39.9293407 L30.8481322,34.2331868 L34.276562,34.2331868 L34.276562,7.65 L33.6799339,7.65 L25.4300826,39.9292308 L19.0427107,39.9292308 L10.8995702,7.65 L10.2828099,7.65 L10.2828099,34.2330769 L13.7097521,34.2330769 L13.7097521,39.9292308 L0,39.9293407 L0,34.2330769 L1.90145455,34.2330769 C2.64793388,34.2330769 3.42704132,33.6525275 3.42704132,32.9441758 L3.42704132,7.28857143 C3.42704132,6.58197802 2.64803306,5.7521978 1.90145455,5.7521978 L0,5.7521978 L0,0.0553846154 L17.767438,0.0553846154 L23.5686942,22.8402198 L23.7247934,22.8402198 L29.5832727,0.0553846154 L47.9861157,0.0553846154 L47.9861157,5.7521978 Z" id="Shape"></path>
            </g>
        </g>
    </g>
</svg>