<?xml version="1.0" encoding="UTF-8"?>
<svg width="23px" height="20px" viewBox="0 0 23 20" version="1.1" xmlns="http://www.w3.org/2000/svg" xmlns:xlink="http://www.w3.org/1999/xlink">
    <!-- Generator: Sketch 49.3 (51167) - http://www.bohemiancoding.com/sketch -->
    <title>logo-medium</title>
    <desc>Created with Sketch.</desc>
    <defs>
        <rect id="path-1" x="0" y="0" width="24" height="24"></rect>
    </defs>
    <g id="Page-1" stroke="none" stroke-width="1" fill="none" fill-rule="evenodd">
        <g id="Desktop" transform="translate(-913.000000, -2002.000000)">
            <g id="logo-medium" transform="translate(912.000000, 2000.000000)">
                <mask id="mask-2" fill="white">
                    <use xlink:href="#path-1"></use>
                </mask>
                <g id="Mask"></g>
                <path d="M25,4.84923075 L23.6756996,4.84923075 C23.3308726,4.84923075 22.4285785,5.26429587 22.4285785,5.61763983 L22.4285785,18.4492086 C22.4285785,18.8034319 23.3308726,19.0938456 23.6756996,19.0938456 L25,19.0938456 L25,21.9427466 L16.4285289,21.9427466 L16.4285289,19.0938456 L18.1432398,19.0938456 L18.1432398,5.7984064 L17.8448394,5.7984064 L13.7187203,21.9426916 L10.5241103,21.9426916 L6.45136196,5.7984064 L6.14289257,5.7984064 L6.14289257,19.0937906 L7.85685942,19.0937906 L7.85685942,21.9426916 L1,21.9427466 L1,19.0937906 L1.95100236,19.0937906 C2.32435002,19.0937906 2.71401645,18.8034319 2.71401645,18.4491536 L2.71401645,5.61763983 C2.71401645,5.26424091 2.32439962,4.84923075 1.95100236,4.84923075 L1,4.84923075 L1,2 L9.88628942,2 L12.7877568,13.3957139 L12.865829,13.3957139 L15.7959162,2 L25,2 L25,4.84923075 Z" id="Shape" fill="#FEFAFC" fill-rule="nonzero" mask="url(#mask-2)"></path>
            </g>
        </g>
    </g>
</svg>