<?xml version="1.0" encoding="UTF-8"?>
<svg width="24px" height="20px" viewBox="0 0 24 20" version="1.1" xmlns="http://www.w3.org/2000/svg" xmlns:xlink="http://www.w3.org/1999/xlink">
    <!-- Generator: Sketch 49.3 (51167) - http://www.bohemiancoding.com/sketch -->
    <title>logo-twitter</title>
    <desc>Created with Sketch.</desc>
    <defs>
        <rect id="path-1" x="0" y="0" width="24" height="24"></rect>
    </defs>
    <g id="Page-1" stroke="none" stroke-width="1" fill="none" fill-rule="evenodd">
        <g id="Desktop" transform="translate(-960.000000, -2004.000000)">
            <g id="logo-twitter" transform="translate(960.000000, 2002.000000)">
                <mask id="mask-2" fill="white">
                    <use xlink:href="#path-1"></use>
                </mask>
                <g id="Mask"></g>
                <path d="M23.5697314,4.32099415 C23.0375854,4.55730994 22.4851766,4.74374269 21.9183445,4.87871345 C22.5429285,4.28432749 23.0125343,3.54087719 23.2774686,2.71105263 C23.353089,2.47415205 23.0961547,2.26929825 22.8825489,2.39614035 C22.0939942,2.8645614 21.2445927,3.21596491 20.3578774,3.44070175 C20.3064321,3.45374269 20.2533518,3.46035088 20.2000963,3.46035088 C20.0385781,3.46035088 19.8815562,3.4002924 19.7580526,3.29128655 C18.8146365,2.45859649 17.6012642,2 16.341527,2 C15.7964175,2 15.2460526,2.08508772 14.705673,2.25292398 C13.0313956,2.77298246 11.7395416,4.15608187 11.3342277,5.86251462 C11.1821693,6.5025731 11.1410015,7.14321637 11.2117752,7.76660819 C11.219892,7.83824561 11.1860817,7.88824561 11.165235,7.91169591 C11.1286219,7.95280702 11.0767095,7.97637427 11.0228117,7.97637427 C11.0167971,7.97637427 11.0106073,7.97608187 11.0044759,7.97549708 C7.3395416,7.63450292 4.03466569,5.86625731 1.6986073,2.99654971 C1.57948321,2.85017544 1.35104525,2.86812865 1.25609635,3.03122807 C0.798636493,3.81719298 0.556884669,4.71614035 0.556884669,5.63087719 C0.556884669,7.03274854 1.11927883,8.35385965 2.09615474,9.31695906 C1.68535182,9.2194152 1.28774598,9.06578947 0.918402917,8.86035088 C0.739716785,8.76093567 0.519862771,8.88871345 0.517351822,9.09339181 C0.491775179,11.1759649 1.70929343,13.0290643 3.53317664,13.8635088 C3.49644671,13.864386 3.45971679,13.8647953 3.42292846,13.8647953 C3.13381898,13.8647953 2.84108905,13.8368421 2.55297226,13.7816959 C2.35174598,13.7432164 2.18269489,13.934386 2.24517664,14.1297661 C2.83717664,15.9807018 4.4285343,17.3450292 6.33288467,17.6547953 C4.75238832,18.7173099 2.91186277,19.2777778 0.996242333,19.2777778 L0.399045252,19.2774269 C0.215045252,19.2774269 0.0594248145,19.3975439 0.0125343036,19.5760234 C-0.0336554775,19.7518129 0.0514248145,19.9372515 0.208329924,20.028655 C2.36692846,21.2867251 4.82911825,21.9516374 7.32978978,21.9516374 C9.51869489,21.9516374 11.5662277,21.5166082 13.4155708,20.6587135 C15.1109285,19.8722222 16.609089,18.7479532 17.8684175,17.3171345 C19.0415562,15.984269 19.9589285,14.445614 20.5949577,12.7439766 C21.2012642,11.1219298 21.5217314,9.39116959 21.5217314,7.73877193 L21.5217314,7.66005848 C21.521673,7.39473684 21.6414978,7.14508772 21.8505489,6.9751462 C22.6438336,6.33011696 23.3346365,5.57081871 23.9036876,4.71836257 C24.0539358,4.49327485 23.8169723,4.21116959 23.5697314,4.32099415 Z" id="Shape" fill="#FEFAFC" fill-rule="nonzero" mask="url(#mask-2)"></path>
            </g>
        </g>
    </g>
</svg>